<svg xmlns="http://www.w3.org/2000/svg" viewBox="0 0 182.29 91"><defs><style>.cls-1{fill:#a91e22;}.cls-2{fill:#231f20;}</style></defs><title>insignificantword</title><g id="Layer_2" data-name="Layer 2"><g id="Layer_1-2" data-name="Layer 1"><path class="cls-1" d="M7.27,5.33H9.57V9H7.27V21.33H2.48V9H.12V5.33H2.48V0H7.27Z"/><path class="cls-1" d="M11.93,0h4.79V6.8h.06a4.48,4.48,0,0,1,4.12-2,5.83,5.83,0,0,1,4.35,1.76c1.35,1.59,1.5,3,1.5,5.85v8.94H22V12.63c0-.78,0-3.34-2.57-3.34s-2.68,2.39-2.68,3.17v8.88H11.93Z"/><path class="cls-1" d="M45.71,16.32a9.38,9.38,0,0,1-3.26,4.1,7.77,7.77,0,0,1-4.55,1.44,8.53,8.53,0,0,1-.09-17.07,8.44,8.44,0,0,1,8.45,8.74,6.46,6.46,0,0,1-.12,1.27h-12a3.59,3.59,0,0,0,3.75,3,3.4,3.4,0,0,0,2.91-1.5Zm-4.24-4.76a3.53,3.53,0,0,0-3.63-2.74,3.53,3.53,0,0,0-3.63,2.74Z"/><path class="cls-1" d="M6.31,38.21H1.53V34.58H6.31Zm0,17.7H1.53v-16H6.31Z"/><path class="cls-1" d="M9.93,39.91H14.4v1.7h.06a4.57,4.57,0,0,1,4.35-2.25,6.91,6.91,0,0,1,4.09,1.38c.86.75,1.85,2,1.85,5.16v10H20V47.17c0-1.13,0-3.32-2.51-3.32-2.74,0-2.74,2.36-2.74,3.34v8.71H9.93Z"/><path class="cls-1" d="M35.23,44.41c0-.35-.09-1.21-1.5-1.21-1,0-1.36.64-1.36,1.07,0,.87,1.18,1.36,2.45,1.73,2.71.75,5.59,1.56,5.59,5s-3,5.45-6.51,5.45c-2.42,0-6.08-1.1-6.52-5.3h4.76A1.7,1.7,0,0,0,34,52.62c.81,0,1.67-.46,1.67-1.24,0-1.24-1.18-1.38-4.24-2.57-2.08-.66-3.81-2-3.81-4.18,0-3.17,2.88-5.28,6.2-5.28,2.1,0,5.74.84,6.14,5Z"/><path class="cls-1" d="M47.93,38.21H43.15V34.58h4.79Zm0,17.7H43.15v-16h4.79Z"/><path class="cls-1" d="M68.12,54c0,2.39-.17,3.92-1,5.28C65.93,61.27,63,63,59.07,63c-5.57,0-7.67-3.34-8-5.62h5.54A3,3,0,0,0,59.42,59c.6,0,3.89-.06,3.89-4.35v-.49h-.06a4.8,4.8,0,0,1-4.38,2.28A8,8,0,0,1,50.8,48c0-5.48,3.92-8.62,8.07-8.62a5.08,5.08,0,0,1,4.41,2h.06v-1.5h4.79Zm-8.71-2a3.8,3.8,0,0,0,3.92-4,3.85,3.85,0,0,0-3.89-4.12,4.06,4.06,0,0,0,0,8.1Z"/><path class="cls-1" d="M71.75,39.91h4.47v1.7h.06a4.57,4.57,0,0,1,4.35-2.25,6.9,6.9,0,0,1,4.09,1.38c.86.75,1.85,2,1.85,5.16v10H81.78V47.17c0-1.13,0-3.32-2.51-3.32-2.74,0-2.74,2.36-2.74,3.34v8.71H71.75Z"/><path class="cls-1" d="M95,38.21H90.18V34.58H95Zm0,17.7H90.18v-16H95Z"/><path class="cls-1" d="M99.13,43.54H97.34V39.91h1.79v-.83c0-4.5,3.78-4.9,6.11-4.9h.69v3.61h-.55a1.37,1.37,0,0,0-1.47,1.5v.63h2v3.63h-2V55.91H99.13Z"/><path class="cls-1" d="M113.18,38.21h-4.79V34.58h4.79Zm0,17.7h-4.79v-16h4.79Z"/><path class="cls-1" d="M132.92,49.83a8.59,8.59,0,0,1-17-2,8.56,8.56,0,0,1,16.92-1.79h-4.84a3.58,3.58,0,0,0-3.46-2.25c-2.28-.12-3.81,1.76-3.81,4.06A3.78,3.78,0,0,0,124.59,52a3.68,3.68,0,0,0,3.46-2.13Z"/><path class="cls-1" d="M152.33,55.91h-4.79V54.18h-.06c-.81,1.56-2.8,2.28-4.67,2.28-5.07,0-8-4-8-8.56,0-5.25,3.78-8.53,8-8.53a5.21,5.21,0,0,1,4.67,2.25h.06v-1.7h4.79ZM143.53,52a4.08,4.08,0,1,0-4-4A4,4,0,0,0,143.53,52Z"/><path class="cls-1" d="M156,39.91h4.47v1.7h.06a4.57,4.57,0,0,1,4.35-2.25A6.9,6.9,0,0,1,169,40.74c.86.75,1.85,2,1.85,5.16v10H166V47.17c0-1.13,0-3.32-2.51-3.32-2.74,0-2.74,2.36-2.74,3.34v8.71H156Z"/><path class="cls-1" d="M180,39.91h2.31v3.63H180V55.91H175.2V43.54h-2.36V39.91h2.36V34.58H180Z"/><path class="cls-1" d="M5,74.48l2.39,9.95h.06L10,74.48h4l2.65,9.95h.06l2.39-9.95H24.1l-4.9,16H14.76L12.08,80.14H12L9.34,90.48H4.9L0,74.48Z"/><path class="cls-1" d="M33.48,74a8.51,8.51,0,1,1,0,17,8.51,8.51,0,1,1,0-17Zm0,12.54a4,4,0,1,0-3.83-4A3.9,3.9,0,0,0,33.48,86.51Z"/><path class="cls-1" d="M44.9,74.48h4.5v1.7h.06c.4-.78,1.24-2.25,4-2.25v4.81c-2.22.06-3.78.52-3.78,2.94v8.79H44.9Z"/><path class="cls-1" d="M72.15,90.48H67.59V88.75h-.06C67.13,89.42,66,91,62.75,91c-4.84,0-8-3.75-8-8.56,0-5.42,3.86-8.5,7.93-8.5a6.13,6.13,0,0,1,4.7,1.9V69.15h4.79Zm-8.62-3.95a4,4,0,0,0,4.09-4.12,4.05,4.05,0,1,0-4.09,4.12Z"/><path class="cls-2" d="M90,79.09c0,4.57-3.09,5.59-4.71,5.59H82V80.57h1.66a1.76,1.76,0,0,0,2-1.75V77.24H82V69.4h8Zm11.4,0c0,4.57-3.09,5.59-4.71,5.59H93.42V80.57h1.66A1.74,1.74,0,0,0,97,78.81V77.24h-3.6V69.4h8Z"/></g></g></svg>