<svg xmlns="http://www.w3.org/2000/svg" viewBox="0 0 82.93 47.91"><defs><style>.cls-1{fill:#231f20;}</style></defs><title>intentionmeaning</title><g id="Layer_2" data-name="Layer 2"><g id="Layer_1-2" data-name="Layer 1"><path class="cls-1" d="M11.58,11.13H9.25V9.37h2.33Zm0,8.6H9.25V12h2.33Z"/><path class="cls-1" d="M13.34,12h2.17v.83h0a2.22,2.22,0,0,1,2.12-1.09,3.35,3.35,0,0,1,2,.67,3,3,0,0,1,.9,2.51v4.86H18.21V15.49c0-.55,0-1.61-1.22-1.61S15.66,15,15.66,15.5v4.23H13.34Z"/><path class="cls-1" d="M25,12h1.12v1.76H25v6H22.67v-6H21.52V12h1.15V9.37H25Z"/><path class="cls-1" d="M34.57,17.29a4.56,4.56,0,0,1-1.58,2,3.78,3.78,0,0,1-2.21.7,4.15,4.15,0,1,1,4.06-4,3.16,3.16,0,0,1-.06.62H29A1.74,1.74,0,0,0,30.78,18a1.65,1.65,0,0,0,1.42-.73ZM32.51,15A1.84,1.84,0,0,0,29,15Z"/><path class="cls-1" d="M36.17,12h2.17v.83h0a2.22,2.22,0,0,1,2.12-1.09,3.35,3.35,0,0,1,2,.67,3,3,0,0,1,.9,2.51v4.86H41V15.49c0-.55,0-1.61-1.22-1.61S38.49,15,38.49,15.5v4.23H36.17Z"/><path class="cls-1" d="M47.82,12h1.12v1.76H47.82v6H45.49v-6H44.35V12h1.15V9.37h2.33Z"/><path class="cls-1" d="M52.43,11.13H50.11V9.37h2.33Zm0,8.6H50.11V12h2.33Z"/><path class="cls-1" d="M58,11.71a4.13,4.13,0,1,1-4.19,4.13A4.06,4.06,0,0,1,58,11.71Zm0,6.09a2,2,0,1,0-1.86-2A1.89,1.89,0,0,0,58,17.8Z"/><path class="cls-1" d="M63.54,12h2.17v.83h0a2.22,2.22,0,0,1,2.12-1.09,3.35,3.35,0,0,1,2,.67,3,3,0,0,1,.9,2.51v4.86H68.42V15.49c0-.55,0-1.61-1.22-1.61S65.87,15,65.87,15.5v4.23H63.54Z"/><path class="cls-1" d="M9.25,28.76h2.17v.83h0a2.21,2.21,0,0,1,2.14-1.09,2.43,2.43,0,0,1,2.24,1.39,3,3,0,0,1,4.51-.6c.73.77.84,1.29.84,3v4.24H18.86V32.4c0-.63,0-1.72-1.19-1.72s-1.29,1.18-1.29,1.61v4.24H14.06V32.3c0-.42,0-1.63-1.16-1.63-1.32,0-1.32,1.26-1.32,1.72v4.13H9.25Z"/><path class="cls-1" d="M30.41,34.09a4.56,4.56,0,0,1-1.58,2,3.78,3.78,0,0,1-2.21.7,4.15,4.15,0,1,1,4.06-4,3.16,3.16,0,0,1-.06.62H24.79a1.74,1.74,0,0,0,1.82,1.47A1.65,1.65,0,0,0,28,34.09Zm-2.06-2.31a1.84,1.84,0,0,0-3.53,0Z"/><path class="cls-1" d="M40.16,36.53H37.84v-.84h0a2.51,2.51,0,0,1-2.27,1.11,3.89,3.89,0,0,1-3.91-4.16,3.93,3.93,0,0,1,3.91-4.15,2.53,2.53,0,0,1,2.27,1.09h0v-.83h2.33Zm-4.27-1.91a2,2,0,1,0-1.93-2A1.92,1.92,0,0,0,35.89,34.63Z"/><path class="cls-1" d="M41.95,28.76h2.17v.83h0a2.22,2.22,0,0,1,2.12-1.09,3.35,3.35,0,0,1,2,.67,3,3,0,0,1,.9,2.51v4.86H46.82V32.29c0-.55,0-1.61-1.22-1.61s-1.33,1.15-1.33,1.63v4.23H41.95Z"/><path class="cls-1" d="M53.23,27.93H50.9V26.17h2.33Zm0,8.6H50.9V28.76h2.33Z"/><path class="cls-1" d="M55,28.76h2.17v.83h0a2.22,2.22,0,0,1,2.12-1.09,3.35,3.35,0,0,1,2,.67,3,3,0,0,1,.9,2.51v4.86H59.86V32.29c0-.55,0-1.61-1.22-1.61s-1.33,1.15-1.33,1.63v4.23H55Z"/><path class="cls-1" d="M72,35.59a4.92,4.92,0,0,1-.46,2.56A4.55,4.55,0,0,1,67.56,40c-2.7,0-3.73-1.62-3.88-2.73h2.69a1.43,1.43,0,0,0,1.36.77c.29,0,1.89,0,1.89-2.12v-.24h0a2.33,2.33,0,0,1-2.13,1.11,3.9,3.9,0,0,1-3.92-4.09,3.94,3.94,0,0,1,3.92-4.19,2.47,2.47,0,0,1,2.14,1h0v-.73H72Zm-4.23-1a1.85,1.85,0,0,0,1.9-1.93,1.87,1.87,0,0,0-1.89-2,2,2,0,0,0,0,3.94Z"/><polygon class="cls-1" points="2.64 12.63 0 12.63 0 0 12.48 0 12.48 2.64 2.64 2.64 2.64 12.63"/><path class="cls-1" d="M70.91,47.91l-.36-2.62c2.54-.35,8.58-2.08,9.75-10.58l2.62.36C81.47,45.65,73.36,47.57,70.91,47.91Z"/></g></g></svg>