<svg xmlns="http://www.w3.org/2000/svg" viewBox="0 0 80 30.54"><defs><style>.cls-1{fill:#231f20;}</style></defs><title>logoblack</title><g id="Layer_2" data-name="Layer 2"><g id="Layer_1-2" data-name="Layer 1"><path class="cls-1" d="M9.17,8.25a4.62,4.62,0,0,1-4.54,3.57A4.58,4.58,0,0,1,0,7.19a4.55,4.55,0,0,1,4.57-4.6A4.58,4.58,0,0,1,9.16,6.23H6.54A1.94,1.94,0,0,0,4.67,5a2,2,0,0,0-2.06,2.2,2,2,0,0,0,2.06,2.2A2,2,0,0,0,6.54,8.25Z"/><path class="cls-1" d="M14.85,2.61a4.52,4.52,0,0,1,4.67,4.6,4.52,4.52,0,0,1-4.67,4.6,4.52,4.52,0,0,1-4.67-4.6A4.52,4.52,0,0,1,14.85,2.61Zm0,6.79a2.11,2.11,0,0,0,2.07-2.18,2.08,2.08,0,1,0-4.15,0A2.11,2.11,0,0,0,14.85,9.39Z"/><path class="cls-1" d="M21,2.89h2.42v.92h0a2.47,2.47,0,0,1,2.36-1.22A3.74,3.74,0,0,1,28,3.34a3.29,3.29,0,0,1,1,2.79v5.41H26.4V6.82C26.4,6.21,26.4,5,25,5S23.56,6.3,23.56,6.83v4.71H21Z"/><path class="cls-1" d="M34.51,5.32c0-.19,0-.66-.81-.66-.55,0-.73.34-.73.58,0,.47.64.73,1.33.94,1.47.4,3,.84,3,2.71s-1.61,2.95-3.53,2.95A3.26,3.26,0,0,1,30.27,9h2.57a.92.92,0,0,0,1,.8c.44,0,.91-.25.91-.67,0-.67-.64-.75-2.29-1.39a2.52,2.52,0,0,1-2.06-2.26,3.08,3.08,0,0,1,3.35-2.86,3,3,0,0,1,3.32,2.73Z"/><path class="cls-1" d="M47.36,8.25a4.65,4.65,0,0,1-9.17-1.06,4.63,4.63,0,0,1,9.16-1H44.73A1.94,1.94,0,0,0,42.85,5a2,2,0,0,0-2.06,2.2,2,2,0,0,0,2.06,2.2,2,2,0,0,0,1.87-1.16Z"/><path class="cls-1" d="M51.37,2H48.78V0h2.59Zm0,9.58H48.78V2.89h2.59Z"/><path class="cls-1" d="M57.5,2.61a4.52,4.52,0,0,1,4.67,4.6,4.67,4.67,0,0,1-9.33,0A4.52,4.52,0,0,1,57.5,2.61Zm0,6.79a2.11,2.11,0,0,0,2.07-2.18,2.08,2.08,0,1,0-4.15,0A2.11,2.11,0,0,0,57.5,9.39Z"/><path class="cls-1" d="M71.64,11.55H69.19v-.92h0a2.26,2.26,0,0,1-2.25,1.2,3.28,3.28,0,0,1-2.54-1.09,3.57,3.57,0,0,1-.78-2.67V2.89h2.59V7.68c0,.59,0,1.73,1.39,1.73.75,0,1.48-.39,1.48-1.76V2.89h2.59Z"/><path class="cls-1" d="M77.19,5.32c0-.19,0-.66-.81-.66-.55,0-.73.34-.73.58,0,.47.64.73,1.33.94,1.47.4,3,.84,3,2.71s-1.61,2.95-3.53,2.95A3.26,3.26,0,0,1,72.95,9h2.57a.92.92,0,0,0,1,.8c.44,0,.91-.25.91-.67,0-.67-.64-.75-2.29-1.39a2.52,2.52,0,0,1-2.06-2.26,3.08,3.08,0,0,1,3.35-2.86,3,3,0,0,1,3.32,2.73Z"/><path class="cls-1" d="M.42,18.71H3V30.26H.42Z"/><path class="cls-1" d="M9.14,21.32a4.6,4.6,0,1,1,0,9.21,4.6,4.6,0,1,1,0-9.21Zm0,6.79a2.19,2.19,0,1,0-2.08-2.18A2.11,2.11,0,0,0,9.14,28.11Z"/><path class="cls-1" d="M19.72,30.26H17.24l-3.1-8.66h2.68L18.47,27h0l1.65-5.4h2.68Z"/><path class="cls-1" d="M32.07,27.54a5.07,5.07,0,0,1-1.76,2.22,4.21,4.21,0,0,1-2.46.78A4.62,4.62,0,1,1,32.37,26a3.53,3.53,0,0,1-.06.69H25.82a1.94,1.94,0,0,0,2,1.64,1.84,1.84,0,0,0,1.58-.81ZM29.78,25a2,2,0,0,0-3.93,0Z"/><path class="cls-1" d="M40.53,23.13c0,2.47-1.67,3-2.55,3h-1.8V23.93h.9A1,1,0,0,0,38.16,23v-.85h-2V17.88h4.35Zm6.17,0c0,2.47-1.67,3-2.55,3h-1.8V23.93h.9a.94.94,0,0,0,1-.95v-.85H42.36V17.88H46.7Z"/></g></g></svg>