<svg xmlns="http://www.w3.org/2000/svg" viewBox="0 0 115.4 37.46"><defs><style>.cls-1{fill:#c4161c;}.cls-2,.cls-3{fill:none;stroke:#c4161c;stroke-width:0.84px;}.cls-2{stroke-miterlimit:10;stroke-dasharray:2.46 1.61;}.cls-4{fill:#fff;}</style></defs><title>Asset 1</title><g id="Layer_2" data-name="Layer 2"><g id="Layer_3" data-name="Layer 3"><path class="cls-1" d="M59.31,16.3H57.66v1.93h1.65Zm0-1.08a3.57,3.57,0,0,1,1.36-2.62,3.33,3.33,0,0,0,1.41-2.77,3.53,3.53,0,1,0-7.07,0h1.65a2,2,0,0,1,.33-1,1.88,1.88,0,0,1,1.57-.86A1.9,1.9,0,0,1,60.43,9.9c0,.67-.27.94-1.13,1.81a4.89,4.89,0,0,0-1.65,3.52Z"/><rect class="cls-1" x="62.06" y="2.88" width="3.17" height="1.64" transform="translate(18.38 48.59) rotate(-48.09)"/><rect class="cls-1" x="53.27" y="2.11" width="1.64" height="3.17" transform="translate(11.36 37.07) rotate(-41.9)"/><rect class="cls-1" x="58.04" width="1.64" height="3.94"/><line class="cls-2" x1="40.95" y1="24.53" x2="73.74" y2="24.53"/><path class="cls-3" d="M72.24,22.83l-.73-.73m1.71,3.18.73-.73-.73-.73M71.5,27l.73-.73"/><path class="cls-1" d="M15.81,37.46A15.81,15.81,0,1,0,0,21.64,15.81,15.81,0,0,0,15.81,37.46"/><path class="cls-1" d="M99.58,37.46A15.81,15.81,0,1,0,83.77,21.64,15.81,15.81,0,0,0,99.58,37.46"/><path class="cls-4" d="M104.9,22.74a6,6,0,0,1-10.07,0h-2.6a8.07,8.07,0,0,0,15.28,0ZM104.52,17H102v2.6h2.55Zm-5.78,0H96.19v2.6h2.55Z"/><path class="cls-4" d="M10.51,26.7a5.82,5.82,0,0,1,5-2.7,5.86,5.86,0,0,1,5.06,2.7h2.61a8.07,8.07,0,0,0-15.28,0Zm9.7-10.54H17.65v2.6H20.2Zm-5.78,0H11.87v2.6h2.55Z"/></g></g></svg>