<svg xmlns="http://www.w3.org/2000/svg" viewBox="0 0 68.27 46.77"><defs><style>.cls-1{fill:#be1e2d;}.cls-1,.cls-2{stroke:#fff;stroke-miterlimit:10;}.cls-2{fill:none;}</style></defs><title>Asset 3</title><g id="Layer_2" data-name="Layer 2"><g id="Layer_3" data-name="Layer 3"><rect class="cls-1" x="39.68" y="12.79" width="28.09" height="33.48"/><path class="cls-1" d="M30.48,38.46h0a7,7,0,0,0-7-7H3.14A2.64,2.64,0,0,1,.5,28.82V3.14A2.64,2.64,0,0,1,3.14.5H23.44a7,7,0,0,1,7,7h0Z"/><path class="cls-1" d="M30.83,38.46h0a7,7,0,0,1,7-7H58.17a2.64,2.64,0,0,0,2.64-2.64V3.14A2.64,2.64,0,0,0,58.17.5H37.86a7,7,0,0,0-7,7h0Z"/><line class="cls-2" x1="38.2" y1="6.11" x2="57.1" y2="6.11"/><line class="cls-2" x1="38.2" y1="9.45" x2="57.1" y2="9.45"/><line class="cls-2" x1="38.2" y1="12.79" x2="57.1" y2="12.79"/><line class="cls-2" x1="38.2" y1="16.14" x2="57.1" y2="16.14"/><line class="cls-2" x1="38.2" y1="19.48" x2="49.23" y2="19.48"/></g></g></svg>