<svg xmlns="http://www.w3.org/2000/svg" viewBox="0 0 76.35 57.21"><defs><style>.cls-1{fill:#be1e2d;}.cls-2{fill:#fff;}</style></defs><title>Asset 2</title><g id="Layer_2" data-name="Layer 2"><g id="Layer_3" data-name="Layer 3"><path class="cls-1" d="M59.78,18.5H35.11l-3.54,4.08a.37.37,0,0,1-.64-.24V18.5a8.29,8.29,0,0,1-8.27-8.27v-2A8.29,8.29,0,0,1,30.92,0H59.78A8.29,8.29,0,0,1,68,8.27v2A8.29,8.29,0,0,1,59.78,18.5Z"/><path class="cls-1" d="M56.19,32.64H41.44l-2.12,2.44a.22.22,0,0,1-.39-.14V32.64A5,5,0,0,1,34,27.7V26.53a5,5,0,0,1,4.94-4.94H56.19a5,5,0,0,1,4.94,4.94V27.7A5,5,0,0,1,56.19,32.64Z"/><path class="cls-1" d="M73,44.39H44.59L43.16,46a.15.15,0,0,1-.26-.1V44.39a3.33,3.33,0,0,1-3.32-3.32v-.79A3.33,3.33,0,0,1,42.9,37H73a3.33,3.33,0,0,1,3.32,3.32v.79A3.33,3.33,0,0,1,73,44.39Z"/><path class="cls-1" d="M13.07,29.25H23.29l1.47,1.69a.15.15,0,0,0,.27-.1V29.25a3.43,3.43,0,0,0,3.42-3.42V25A3.43,3.43,0,0,0,25,21.59h-12A3.43,3.43,0,0,0,9.65,25v.81A3.43,3.43,0,0,0,13.07,29.25Z"/><path class="cls-1" d="M49.38,55.47H39.16l-1.47,1.69a.15.15,0,0,1-.27-.1V55.47A3.43,3.43,0,0,1,34,52v-.81a3.43,3.43,0,0,1,3.42-3.42h12a3.43,3.43,0,0,1,3.42,3.42V52A3.43,3.43,0,0,1,49.38,55.47Z"/><path class="cls-1" d="M6.61,47.83H26.36L29.2,51.1a.29.29,0,0,0,.52-.19V47.83a6.63,6.63,0,0,0,6.61-6.61V39.65A6.63,6.63,0,0,0,29.71,33H6.61A6.63,6.63,0,0,0,0,39.65v1.57A6.63,6.63,0,0,0,6.61,47.83Z"/><circle class="cls-2" cx="39.11" cy="9.22" r="1.13"/><circle class="cls-2" cx="44.75" cy="9.22" r="1.13"/><circle class="cls-2" cx="50.4" cy="9.22" r="1.13"/><circle class="cls-2" cx="12.52" cy="40.74" r="1.13"/><circle class="cls-2" cx="18.16" cy="40.74" r="1.13"/><circle class="cls-2" cx="23.81" cy="40.74" r="1.13"/></g></g></svg>