<svg xmlns="http://www.w3.org/2000/svg" viewBox="0 0 105.26 30.44"><defs><style>.cls-1{fill:#231f20;}</style></defs><title>testyourself</title><g id="Layer_2" data-name="Layer 2"><g id="Layer_1-2" data-name="Layer 1"><path class="cls-1" d="M12,12h1.12v1.76H12v6H9.72v-6H8.57V12H9.72V9.37H12Z"/><path class="cls-1" d="M21.62,17.29a4.56,4.56,0,0,1-1.58,2,3.78,3.78,0,0,1-2.21.7,4.15,4.15,0,1,1,4.06-4,3.17,3.17,0,0,1-.06.62H16A1.74,1.74,0,0,0,17.83,18a1.65,1.65,0,0,0,1.41-.73ZM19.56,15a1.71,1.71,0,0,0-1.76-1.33A1.71,1.71,0,0,0,16,15Z"/><path class="cls-1" d="M26.52,14.14c0-.17,0-.59-.73-.59-.49,0-.66.31-.66.52,0,.42.58.66,1.19.84,1.32.36,2.72.76,2.72,2.44S27.59,20,25.87,20a2.92,2.92,0,0,1-3.17-2.58H25a.83.83,0,0,0,.88.71c.39,0,.81-.22.81-.6,0-.6-.57-.67-2.06-1.25a2.26,2.26,0,0,1-1.85-2,2.76,2.76,0,0,1,3-2.56,2.73,2.73,0,0,1,3,2.45Z"/><path class="cls-1" d="M33.09,12h1.12v1.76H33.09v6H30.76v-6H29.61V12h1.15V9.37h2.33Z"/><path class="cls-1" d="M46.73,12,42.83,22.32H40.37l1.23-3L38.71,12h2.48l1.55,4.51h0L44.26,12Z"/><path class="cls-1" d="M51.14,11.71a4.13,4.13,0,1,1-4.19,4.13A4.06,4.06,0,0,1,51.14,11.71Zm0,6.09a2,2,0,1,0-1.86-2A1.89,1.89,0,0,0,51.14,17.8Z"/><path class="cls-1" d="M63.85,19.73h-2.2v-.83h0a2,2,0,0,1-2,1.08,2.94,2.94,0,0,1-2.28-1,3.2,3.2,0,0,1-.7-2.4V12h2.33v4.3c0,.53,0,1.55,1.25,1.55.67,0,1.33-.35,1.33-1.58V12h2.33Z"/><path class="cls-1" d="M65.62,12h2.18v.83h0a1.92,1.92,0,0,1,1.95-1.09V14c-1.08,0-1.83.25-1.83,1.43v4.27H65.62Z"/><path class="cls-1" d="M74.21,14.14c0-.17,0-.59-.73-.59-.49,0-.66.31-.66.52,0,.42.57.66,1.19.84,1.32.36,2.72.76,2.72,2.44S75.29,20,73.57,20a2.92,2.92,0,0,1-3.17-2.58h2.31a.83.83,0,0,0,.88.71c.39,0,.81-.22.81-.6,0-.6-.57-.67-2.06-1.25a2.26,2.26,0,0,1-1.85-2,2.76,2.76,0,0,1,3-2.56,2.73,2.73,0,0,1,3,2.45Z"/><path class="cls-1" d="M85.47,17.29a4.56,4.56,0,0,1-1.58,2,3.78,3.78,0,0,1-2.21.7,4.15,4.15,0,1,1,4.06-4,3.17,3.17,0,0,1-.06.62H79.86A1.74,1.74,0,0,0,81.68,18a1.65,1.65,0,0,0,1.41-.73ZM83.41,15a1.84,1.84,0,0,0-3.53,0Z"/><path class="cls-1" d="M87.09,9.37h2.33V19.73H87.09Z"/><path class="cls-1" d="M91.44,13.72h-.87V12h.87v-.41c0-2.19,1.83-2.38,3-2.38h.34v1.75h-.27a.67.67,0,0,0-.71.73V12h1v1.76h-1v6H91.44Z"/><polygon class="cls-1" points="2.64 12.63 0 12.63 0 0 12.48 0 12.48 2.64 2.64 2.64 2.64 12.63"/><path class="cls-1" d="M93.25,30.44l-.36-2.62c2.54-.35,8.58-2.08,9.75-10.58l2.62.36C103.81,28.18,95.7,30.1,93.25,30.44Z"/></g></g></svg>