<svg xmlns="http://www.w3.org/2000/svg" viewBox="0 0 62.2 47.91"><defs><style>.cls-1{fill:#231f20;}</style></defs><title>verbalabuse_1</title><g id="Layer_2" data-name="Layer 2"><g id="Layer_1-2" data-name="Layer 1"><path class="cls-1" d="M13.67,19.73H11.44L8.65,12h2.41l1.49,4.85h0L14.06,12h2.41Z"/><path class="cls-1" d="M24.69,17.29a4.56,4.56,0,0,1-1.58,2,3.78,3.78,0,0,1-2.21.7,4.15,4.15,0,1,1,4.06-4,3.17,3.17,0,0,1-.06.62H19.07A1.74,1.74,0,0,0,20.89,18a1.66,1.66,0,0,0,1.42-.73ZM22.63,15a1.84,1.84,0,0,0-3.53,0Z"/><path class="cls-1" d="M26.27,12h2.19v.83h0a1.92,1.92,0,0,1,1.95-1.09V14c-1.08,0-1.83.25-1.83,1.43v4.27H26.27Z"/><path class="cls-1" d="M31.46,9.37h2.32v3.21A3,3,0,0,1,36,11.69a3.84,3.84,0,0,1,3.82,4.1A3.89,3.89,0,0,1,35.94,20a2.52,2.52,0,0,1-2.23-1.09h0v.83H31.46Zm4.13,8.46a2,2,0,0,0,0-4,1.91,1.91,0,0,0-1.93,2A1.89,1.89,0,0,0,35.59,17.83Z"/><path class="cls-1" d="M49.39,19.73H47.07v-.84h0A2.51,2.51,0,0,1,44.77,20a3.89,3.89,0,0,1-3.91-4.16,3.93,3.93,0,0,1,3.91-4.15A2.53,2.53,0,0,1,47,12.78h0V12h2.33Zm-4.27-1.91a2,2,0,1,0-1.93-2A1.92,1.92,0,0,0,45.12,17.83Z"/><path class="cls-1" d="M51.18,9.37H53.5V19.73H51.18Z"/><path class="cls-1" d="M17.42,36.53H15.1v-.84h0A2.51,2.51,0,0,1,12.8,36.8a3.89,3.89,0,0,1-3.91-4.16,3.93,3.93,0,0,1,3.91-4.15,2.53,2.53,0,0,1,2.27,1.09h0v-.83h2.32Zm-4.27-1.91a2,2,0,1,0-1.93-2A1.94,1.94,0,0,0,13.15,34.63Z"/><path class="cls-1" d="M19.2,26.17h2.33v3.21a3,3,0,0,1,2.25-.88,3.84,3.84,0,0,1,3.82,4.1,3.89,3.89,0,0,1-3.92,4.2,2.52,2.52,0,0,1-2.23-1.09h0v.83H19.2Zm4.13,8.46a2,2,0,0,0,0-4,1.91,1.91,0,0,0-1.93,2A1.89,1.89,0,0,0,23.34,34.63Z"/><path class="cls-1" d="M36.18,36.53H34v-.83h0a2,2,0,0,1-2,1.08,3,3,0,0,1-2.28-1,3.2,3.2,0,0,1-.7-2.4V28.76h2.33v4.3c0,.53,0,1.55,1.25,1.55.67,0,1.33-.35,1.33-1.58V28.76h2.33Z"/><path class="cls-1" d="M41.34,30.94c0-.17,0-.59-.73-.59-.49,0-.66.31-.66.52,0,.42.57.66,1.19.84,1.32.36,2.72.76,2.72,2.44s-1.44,2.65-3.17,2.65a2.92,2.92,0,0,1-3.17-2.58h2.31a.83.83,0,0,0,.88.71c.39,0,.81-.22.81-.6,0-.6-.57-.67-2.06-1.25a2.26,2.26,0,0,1-1.85-2,2.76,2.76,0,0,1,3-2.56,2.73,2.73,0,0,1,3,2.45Z"/><path class="cls-1" d="M52.6,34.09a4.56,4.56,0,0,1-1.58,2,3.78,3.78,0,0,1-2.21.7,4.15,4.15,0,1,1,4.06-4,3.25,3.25,0,0,1-.06.62H47a1.75,1.75,0,0,0,1.82,1.47,1.65,1.65,0,0,0,1.41-.73Zm-2.06-2.31a1.84,1.84,0,0,0-3.53,0Z"/><polygon class="cls-1" points="2.64 12.63 0 12.63 0 0 12.48 0 12.48 2.64 2.64 2.64 2.64 12.63"/><path class="cls-1" d="M50.19,47.91l-.36-2.62c2.54-.35,8.58-2.08,9.75-10.58l2.62.36C60.75,45.65,52.64,47.57,50.19,47.91Z"/></g></g></svg>